<?xml version="1.0" encoding="UTF-8"?>
<!DOCTYPE svg PUBLIC "-//W3C//DTD SVG 1.1//EN" "http://www.w3.org/Graphics/SVG/1.1/DTD/svg11.dtd">
<svg xmlns="http://www.w3.org/2000/svg" version="1.1" viewBox="0 0 2500 700" style="shape-rendering:geometricPrecision; text-rendering:geometricPrecision; image-rendering:optimizeQuality; fill-rule:evenodd; clip-rule:evenodd" xmlns:xlink="http://www.w3.org/1999/xlink">
<g><path style="opacity:1" fill="#2977c9" d="M 1044.5,686.5 C 699.5,686.5 354.5,686.5 9.5,686.5C 14.1291,681.509 19.7958,678.009 26.5,676C 40.2076,671.292 54.2076,667.792 68.5,665.5C 65.6211,631.237 64.7878,596.904 66,562.5C 68.0274,480.791 70.694,399.125 74,317.5C 66.931,320.9 60.0976,324.733 53.5,329C 45.0152,337.154 35.6819,344.154 25.5,350C 16.5357,352.437 10.7024,349.27 8,340.5C 6.47081,324.089 10.8041,309.422 21,296.5C 40.9656,277.599 63.1323,261.766 87.5,249C 125.162,228.224 164.829,212.558 206.5,202C 239.263,193.655 271.597,194.988 303.5,206C 338.348,221.537 357.848,248.37 362,286.5C 362.333,296.5 362.667,306.5 363,316.5C 374.287,260.73 384.287,204.73 393,148.5C 394.375,140.143 393.375,132.143 390,124.5C 386.94,121.386 383.44,118.886 379.5,117C 371.73,114.26 363.73,112.594 355.5,112C 316.797,110.579 278.131,111.413 239.5,114.5C 239.162,107.587 238.495,100.754 237.5,94C 295.549,85.4284 353.882,79.4284 412.5,76C 432.833,75.3333 453.167,75.3333 473.5,76C 487.832,76.2622 501.165,79.9289 513.5,87C 521.25,93.5014 525.25,101.835 525.5,112C 524.693,122.208 523.527,132.375 522,142.5C 516.329,169.17 510.996,195.836 506,222.5C 543.107,190.204 582.273,160.704 623.5,134C 657.264,115.743 692.931,102.41 730.5,94C 713.791,87.4927 696.458,84.3261 678.5,84.5C 678.833,83.8333 679.167,83.1667 679.5,82.5C 753.573,74.4182 827.239,63.5849 900.5,50C 945.387,39.5888 989.387,26.5888 1032.5,11C 1010.43,31.7438 987.76,51.7438 964.5,71C 935.167,95 905.833,119 876.5,143C 828.928,183.613 799.428,234.779 788,296.5C 802.657,258.509 828.824,231.676 866.5,216C 911.06,198.041 956.727,194.707 1003.5,206C 1028.54,212.397 1048.71,225.897 1064,246.5C 1081.2,276.533 1080.54,306.2 1062,335.5C 1050.22,354.283 1034.39,368.45 1014.5,378C 1008.97,380.306 1003.63,379.973 998.5,377C 997.54,375.581 996.707,374.081 996,372.5C 994.696,358.89 993.696,345.223 993,331.5C 989.199,302.732 977.032,278.232 956.5,258C 952.187,254.658 947.521,253.658 942.5,255C 930.063,267.119 923.73,281.953 923.5,299.5C 924.693,317.25 930.526,333.25 941,347.5C 948.833,356.667 957.333,365.167 966.5,373C 994.9,393.138 1021.73,415.304 1047,439.5C 1083.28,479.303 1092.28,524.637 1074,575.5C 1052.87,623.005 1016.71,651.838 965.5,662C 989.143,665.128 1012.14,670.795 1034.5,679C 1038.3,680.979 1041.63,683.479 1044.5,686.5 Z M 769.5,174.5 C 770.816,177.087 771.483,180.087 771.5,183.5C 773.008,230.281 776.174,276.948 781,323.5C 782.044,321.285 782.71,318.952 783,316.5C 780.959,348.709 790.292,377.042 811,401.5C 824.221,416.021 838.388,429.521 853.5,442C 875.448,457.614 897.115,473.614 918.5,490C 931.832,502.656 943.665,516.49 954,531.5C 964.821,548.927 968.154,567.593 964,587.5C 957.234,600.321 946.734,604.821 932.5,601C 928.714,599.607 925.048,597.941 921.5,596C 907.462,585.397 896.629,572.23 889,556.5C 882.879,542.257 876.212,528.257 869,514.5C 860.941,501.056 849.108,495.556 833.5,498C 809.56,503.05 789.06,514.216 772,531.5C 762.077,545.739 762.077,560.072 772,574.5C 782.124,587.991 793.957,599.825 807.5,610C 830.759,627.3 856.093,640.966 883.5,651C 872.12,650.784 860.787,649.784 849.5,648C 813.424,635.53 777.091,623.864 740.5,613C 693.975,596.057 649.641,574.723 607.5,549C 579.41,531.012 554.576,509.179 533,483.5C 518.016,465.359 509.516,444.525 507.5,421C 508.104,404.189 512.937,388.689 522,374.5C 536.026,353.7 552.526,334.866 571.5,318C 604.618,287.876 638.618,258.876 673.5,231C 703.128,208.221 735.128,189.387 769.5,174.5 Z M 189.5,288.5 C 219.276,292.448 239.443,308.448 250,336.5C 264.012,374.403 259.345,409.737 236,442.5C 225.274,454.959 215.274,467.959 206,481.5C 201.015,488.453 199.348,496.119 201,504.5C 201.833,507.333 203.667,509.167 206.5,510C 216.222,511.396 225.555,510.063 234.5,506C 275.851,485.654 308.685,455.82 333,416.5C 339.432,404.971 344.765,392.971 349,380.5C 330.971,468.454 310.804,555.954 288.5,643C 242.41,645.578 196.41,648.911 150.5,653C 165.46,639.576 176.293,623.409 183,604.5C 188.295,582.835 190.462,560.835 189.5,538.5C 188.95,514.33 188.283,490.163 187.5,466C 188.598,406.838 189.265,347.671 189.5,288.5 Z M 443.5,500.5 C 506.825,573.862 586.492,620.029 682.5,639C 592.838,637.475 503.172,637.142 413.5,638C 423.944,592.282 433.944,546.448 443.5,500.5 Z"/></g>
<g><path style="opacity:0.678" fill="#68aaf3" d="M 679.5,82.5 C 679.167,83.1667 678.833,83.8333 678.5,84.5C 675.5,84.5 672.5,84.5 669.5,84.5C 672.684,83.6768 676.017,83.0101 679.5,82.5 Z"/></g>
<g><path style="opacity:0.063" fill="#cee6fd" d="M 661.5,85.5 C 661.897,84.475 662.563,84.3083 663.5,85C 662.906,85.4643 662.239,85.631 661.5,85.5 Z"/></g>
<g><path style="opacity:0.008" fill="#ddeefc" d="M 664.5,84.5 C 665.833,85.1667 665.833,85.1667 664.5,84.5 Z"/></g>
<g><path style="opacity:0.078" fill="#cbe5fc" d="M 669.5,84.5 C 668.833,85.1667 668.833,85.1667 669.5,84.5 Z"/></g>
<g><path style="opacity:0.125" fill="#bdddfb" d="M 653.5,86.5 C 655.628,85.3709 657.961,85.2042 660.5,86C 658.19,86.4966 655.857,86.6633 653.5,86.5 Z"/></g>
<g><path style="opacity:0.016" fill="#daedfc" d="M 648.5,86.5 C 649.833,87.1667 649.833,87.1667 648.5,86.5 Z"/></g>
<g><path style="opacity:0.102" fill="#cbe4fc" d="M 653.5,86.5 C 652.749,87.5735 651.749,87.7401 650.5,87C 651.448,86.5172 652.448,86.3505 653.5,86.5 Z"/></g>
</svg>
